<?xml version="1.0" standalone="no"?>
<!DOCTYPE svg PUBLIC "-//W3C//DTD SVG 20010904//EN"
 "http://www.w3.org/TR/2001/REC-SVG-20010904/DTD/svg10.dtd">
<svg version="1.0" xmlns="http://www.w3.org/2000/svg"
 width="924.000000pt" height="520.000000pt" viewBox="0 0 924.000000 520.000000"
 preserveAspectRatio="xMidYMid meet">
<metadata>
Created by potrace 1.16, written by Peter Selinger 2001-2019
</metadata>
<g transform="translate(0.000000,520.000000) scale(0.100000,-0.100000)"
fill="#000000" stroke="none">
<path d="M5017 4414 c-26 -36 -36 -63 -46 -122 -6 -42 -18 -87 -27 -100 -21
-32 -106 -70 -176 -78 -55 -6 -59 -5 -87 25 -16 17 -42 53 -57 79 -36 63 -45
67 -73 35 -21 -25 -23 -32 -16 -102 10 -115 9 -188 -8 -411 -11 -150 -21 -224
-37 -275 -20 -62 -21 -77 -11 -135 6 -36 10 -108 10 -160 -1 -92 0 -97 35
-157 20 -34 53 -76 73 -92 32 -27 46 -31 96 -31 32 0 70 6 86 14 15 8 33 11
40 7 20 -13 51 -157 51 -236 0 -82 -31 -179 -80 -252 -76 -116 -129 -266 -130
-368 0 -28 9 -100 19 -160 11 -64 22 -183 25 -286 6 -183 -3 -253 -61 -469
-15 -55 -18 -115 -18 -405 0 -187 -4 -387 -8 -445 -8 -96 -7 -108 12 -138 19
-29 25 -32 73 -32 29 0 98 -7 152 -15 118 -18 221 -19 265 -4 30 11 71 68 71
100 0 30 -56 81 -132 121 -45 23 -96 57 -115 75 -41 42 -43 78 -9 207 14 50
32 136 41 191 18 109 46 205 80 275 12 25 35 83 50 130 15 47 42 121 60 165
66 166 87 279 104 577 9 148 12 162 46 240 32 73 37 98 46 208 5 69 18 168 27
220 12 70 17 151 17 305 0 206 -1 211 -27 273 -15 35 -46 91 -69 125 -37 56
-41 66 -36 109 4 28 27 89 61 155 72 140 90 241 84 474 -4 182 -9 195 -92 236
-33 16 -60 38 -71 57 -10 17 -36 50 -58 74 -38 39 -45 42 -94 42 -51 0 -54 -1
-86 -46z"/>
</g>
</svg>
