<?xml version="1.0" standalone="no"?>
<!DOCTYPE svg PUBLIC "-//W3C//DTD SVG 20010904//EN"
 "http://www.w3.org/TR/2001/REC-SVG-20010904/DTD/svg10.dtd">
<svg version="1.0" xmlns="http://www.w3.org/2000/svg"
 width="924.000000pt" height="520.000000pt" viewBox="0 0 924.000000 520.000000"
 preserveAspectRatio="xMidYMid meet">
<metadata>
Created by potrace 1.16, written by Peter Selinger 2001-2019
</metadata>
<g transform="translate(0.000000,520.000000) scale(0.100000,-0.100000)"
fill="#000000" stroke="none">
<path d="M3892 3863 c-7 -3 -24 -29 -37 -58 -27 -62 -52 -79 -109 -72 -22 2
-96 10 -162 17 l-122 12 -44 -25 c-59 -35 -103 -83 -130 -142 -20 -43 -23 -68
-25 -185 -1 -74 2 -201 7 -282 6 -102 5 -176 -3 -240 -15 -122 -13 -198 6
-235 20 -38 72 -58 196 -77 62 -9 102 -21 122 -35 20 -15 43 -21 78 -21 44 0
55 4 85 35 l35 35 35 -17 c27 -12 40 -29 61 -76 50 -116 44 -158 -45 -307 -21
-36 -44 -82 -51 -103 -9 -25 -54 -79 -132 -160 -65 -67 -130 -140 -144 -162
-14 -22 -34 -49 -44 -60 -10 -11 -25 -47 -32 -80 -35 -143 -84 -212 -234 -330
-64 -49 -131 -103 -151 -120 -37 -32 -155 -171 -186 -220 -25 -38 -64 -87
-147 -184 -97 -112 -113 -147 -113 -253 -1 -79 1 -89 24 -113 51 -55 155 -74
201 -36 22 18 24 28 26 114 3 148 32 192 253 382 57 50 136 119 175 155 38 36
115 94 170 130 55 35 124 80 154 99 30 20 114 92 185 160 168 159 261 233 349
277 107 55 176 48 370 -35 54 -23 161 -64 238 -90 77 -27 149 -57 159 -66 27
-25 26 -90 -1 -135 -27 -44 -93 -289 -119 -440 -11 -63 -26 -141 -35 -173 -8
-32 -15 -78 -15 -102 0 -36 5 -47 31 -69 28 -24 38 -26 123 -26 70 0 113 -6
176 -25 91 -27 162 -32 177 -12 18 21 22 84 8 103 -11 17 -42 40 -167 122 -25
16 -43 39 -55 70 -16 42 -16 49 0 110 9 35 71 175 136 311 72 150 121 264 125
292 15 106 -81 213 -354 391 -133 87 -156 99 -227 122 -60 20 -123 82 -123
120 0 14 -7 55 -16 93 -11 47 -16 123 -18 243 -1 173 -2 176 -38 285 -21 61
-51 155 -67 211 -19 61 -42 116 -61 140 -144 188 -158 212 -179 304 -23 100
-70 212 -105 250 -13 14 -35 46 -50 71 -14 25 -37 51 -50 57 -14 6 -32 23 -42
37 -15 24 -41 30 -72 18z"/>
</g>
</svg>
