<?xml version="1.0" standalone="no"?>
<!DOCTYPE svg PUBLIC "-//W3C//DTD SVG 20010904//EN"
 "http://www.w3.org/TR/2001/REC-SVG-20010904/DTD/svg10.dtd">
<svg version="1.0" xmlns="http://www.w3.org/2000/svg"
 width="924.000000pt" height="520.000000pt" viewBox="0 0 924.000000 520.000000"
 preserveAspectRatio="xMidYMid meet">
<metadata>
Created by potrace 1.16, written by Peter Selinger 2001-2019
</metadata>
<g transform="translate(0.000000,520.000000) scale(0.100000,-0.100000)"
fill="#000000" stroke="none">
<path d="M4435 4961 c-36 -16 -45 -28 -77 -97 l-36 -79 3 -141 2 -141 72 -69
c71 -69 71 -69 81 -139 5 -38 10 -100 10 -137 0 -52 6 -77 25 -114 14 -26 25
-53 25 -61 0 -12 -97 -62 -124 -64 -24 -1 -122 -77 -163 -127 -71 -87 -77
-125 -62 -375 15 -227 14 -322 -1 -363 -6 -14 -10 -55 -10 -92 0 -56 6 -78 33
-130 26 -51 41 -68 80 -90 42 -23 52 -24 78 -15 17 7 37 9 44 7 25 -10 40 -76
40 -174 -1 -111 -11 -135 -90 -220 -28 -30 -60 -67 -71 -81 -10 -14 -45 -59
-76 -100 -41 -54 -67 -102 -96 -180 -62 -164 -66 -171 -225 -354 -79 -91 -175
-175 -277 -242 -30 -20 -73 -49 -95 -64 -22 -14 -69 -41 -105 -58 -36 -17 -81
-41 -100 -53 -43 -28 -230 -165 -286 -210 -22 -18 -73 -53 -113 -78 -39 -25
-100 -63 -134 -86 l-62 -41 -3 -75 c-2 -66 0 -78 22 -108 14 -19 34 -52 46
-72 11 -21 40 -58 65 -84 42 -43 47 -45 84 -39 42 7 57 26 42 54 -6 10 -13 41
-17 69 -6 47 -4 55 22 89 44 60 122 134 204 194 101 75 383 225 545 289 39 15
136 60 217 99 81 39 149 71 152 71 23 0 293 203 384 289 62 58 127 115 143
125 29 18 33 18 66 2 19 -9 96 -26 171 -37 213 -32 228 -47 189 -180 -32 -106
-75 -343 -87 -474 -5 -55 -14 -136 -21 -180 -22 -149 23 -191 179 -166 56 8
94 9 137 1 86 -14 200 -13 213 3 18 21 26 95 13 111 -7 8 -35 20 -64 26 -57
14 -111 39 -142 68 -86 78 -90 134 -20 345 50 152 90 256 121 315 20 39 28 72
32 127 4 70 3 76 -25 114 -44 60 -135 129 -351 264 -42 27 -90 61 -105 75 -36
34 -34 52 23 247 22 77 53 202 69 277 25 114 28 147 21 195 -11 75 -87 250
-130 299 -60 69 -75 116 -73 230 1 55 6 136 12 180 16 112 17 339 2 399 -7 28
-16 104 -21 170 -5 67 -14 134 -20 150 -6 17 -16 68 -21 115 -13 111 -25 155
-54 199 -36 54 -40 104 -15 192 l21 77 -26 48 c-29 55 -38 61 -109 80 -68 18
-132 16 -181 -5z"/>
</g>
</svg>
