<?xml version="1.0" standalone="no"?>
<!DOCTYPE svg PUBLIC "-//W3C//DTD SVG 20010904//EN"
 "http://www.w3.org/TR/2001/REC-SVG-20010904/DTD/svg10.dtd">
<svg version="1.0" xmlns="http://www.w3.org/2000/svg"
 width="924.000000pt" height="520.000000pt" viewBox="0 0 924.000000 520.000000"
 preserveAspectRatio="xMidYMid meet">
<metadata>
Created by potrace 1.16, written by Peter Selinger 2001-2019
</metadata>
<g transform="translate(0.000000,520.000000) scale(0.100000,-0.100000)"
fill="#000000" stroke="none">
<path d="M2862 4625 c-34 -15 -34 -15 -27 -67 4 -29 15 -66 25 -83 10 -16 26
-50 36 -75 27 -68 75 -130 114 -147 19 -8 67 -23 107 -34 91 -23 191 -75 268
-139 33 -28 98 -78 145 -113 93 -67 170 -142 170 -163 0 -8 -12 -21 -26 -30
-28 -19 -80 -20 -162 -4 -108 20 -188 -36 -255 -179 -49 -105 -53 -137 -33
-276 36 -242 39 -283 28 -384 -6 -54 -18 -114 -27 -132 -15 -28 -16 -40 -6
-84 17 -75 58 -111 136 -120 91 -11 184 -32 200 -45 18 -15 31 -60 40 -128 11
-94 14 -98 92 -105 62 -6 70 -5 91 17 22 22 23 26 13 97 -7 56 -7 75 2 81 19
12 26 10 52 -16 47 -47 45 -138 -5 -201 -17 -21 -30 -46 -30 -56 0 -11 -11
-42 -25 -69 -14 -28 -37 -74 -51 -102 -17 -34 -62 -88 -122 -147 -131 -129
-158 -168 -192 -271 -42 -128 -92 -222 -141 -264 -24 -20 -46 -36 -50 -36 -4
0 -48 -35 -98 -78 -130 -111 -251 -252 -394 -458 -31 -44 -64 -87 -73 -95 -22
-18 -59 -104 -67 -157 -10 -56 9 -124 41 -155 45 -41 148 -42 192 -1 10 10 15
39 16 98 1 90 10 113 78 200 48 61 450 401 593 501 73 51 179 139 248 205 164
158 262 234 358 281 116 56 196 50 367 -29 93 -43 218 -89 319 -118 114 -33
134 -69 87 -162 -31 -62 -92 -295 -112 -429 -9 -61 -28 -137 -46 -181 -24 -60
-29 -84 -23 -117 10 -73 47 -90 176 -86 75 2 98 -2 173 -28 48 -17 105 -31
127 -31 34 0 42 5 59 33 39 63 18 101 -86 158 -114 63 -164 129 -150 200 9 44
97 251 181 424 94 193 100 212 85 275 -10 40 -24 62 -74 112 -34 35 -79 77
-101 94 -103 80 -279 191 -365 231 -112 52 -138 74 -146 122 -3 20 -17 79 -29
131 -21 84 -23 111 -18 230 5 129 4 138 -21 205 -15 39 -49 136 -75 217 -41
126 -56 157 -103 220 -96 128 -124 174 -147 239 -64 180 -149 333 -240 431
-33 35 -84 92 -113 128 -30 36 -74 80 -99 98 -24 19 -62 49 -84 68 -91 77
-112 93 -160 118 -94 51 -144 82 -167 103 -13 11 -46 32 -74 46 -28 14 -64 37
-80 50 -16 13 -45 32 -64 43 -19 11 -72 50 -118 87 -45 37 -88 67 -95 67 -6
-1 -27 -7 -45 -15z"/>
</g>
</svg>
