<?xml version="1.0" standalone="no"?>
<!DOCTYPE svg PUBLIC "-//W3C//DTD SVG 20010904//EN"
 "http://www.w3.org/TR/2001/REC-SVG-20010904/DTD/svg10.dtd">
<svg version="1.0" xmlns="http://www.w3.org/2000/svg"
 width="924.000000pt" height="520.000000pt" viewBox="0 0 924.000000 520.000000"
 preserveAspectRatio="xMidYMid meet">
<metadata>
Created by potrace 1.16, written by Peter Selinger 2001-2019
</metadata>
<g transform="translate(0.000000,520.000000) scale(0.100000,-0.100000)"
fill="#000000" stroke="none">
<path d="M3637 4059 c-17 -10 -16 -13 9 -57 15 -26 55 -76 90 -111 35 -35 64
-70 64 -77 0 -42 -98 -59 -243 -44 -131 14 -167 6 -224 -52 -45 -46 -90 -140
-99 -211 -3 -23 1 -98 10 -167 24 -195 29 -353 16 -482 -10 -109 -10 -119 8
-154 17 -33 29 -41 83 -60 203 -70 231 -91 244 -185 4 -26 13 -53 20 -59 8 -6
42 -10 82 -8 l68 3 3 60 c2 33 8 63 14 67 18 10 66 -19 83 -52 29 -56 18 -123
-32 -199 -13 -19 -23 -41 -23 -50 -1 -9 -14 -41 -30 -71 -16 -30 -41 -77 -56
-105 -16 -29 -51 -71 -87 -100 -139 -116 -177 -167 -221 -295 -45 -129 -90
-213 -132 -248 -17 -15 -63 -52 -100 -82 -161 -130 -204 -177 -398 -435 -62
-82 -121 -156 -130 -164 -48 -40 -85 -163 -72 -235 22 -114 183 -163 240 -73
9 13 14 46 14 84 -1 51 5 74 31 128 27 54 52 83 144 166 166 150 329 286 420
353 170 124 211 158 340 279 73 69 161 149 197 177 82 66 217 130 273 130 60
0 172 -32 246 -69 63 -33 194 -80 327 -120 86 -25 109 -46 99 -93 -4 -18 -15
-49 -25 -68 -29 -58 -89 -289 -109 -421 -11 -68 -31 -155 -46 -194 -31 -80
-29 -135 5 -169 18 -18 36 -22 143 -26 99 -5 134 -11 187 -31 83 -33 153 -44
167 -27 6 7 16 30 23 51 15 48 -1 77 -67 115 -100 59 -132 84 -157 122 -52 78
-39 119 156 520 86 177 101 236 79 303 -27 82 -316 306 -536 415 -55 28 -110
61 -121 73 -14 16 -30 65 -49 149 -24 112 -27 138 -21 245 3 66 1 138 -4 160
-5 22 -40 130 -77 240 l-69 200 -86 114 c-74 97 -90 126 -114 200 -40 127
-114 267 -176 331 -14 14 -33 38 -43 53 -10 15 -32 35 -49 43 -62 29 -101 64
-106 97 -3 21 -16 39 -39 54 -19 13 -39 33 -45 46 -13 25 -69 34 -99 16z"/>
</g>
</svg>
