<?xml version="1.0" standalone="no"?>
<!DOCTYPE svg PUBLIC "-//W3C//DTD SVG 20010904//EN"
 "http://www.w3.org/TR/2001/REC-SVG-20010904/DTD/svg10.dtd">
<svg version="1.0" xmlns="http://www.w3.org/2000/svg"
 width="924.000000pt" height="520.000000pt" viewBox="0 0 924.000000 520.000000"
 preserveAspectRatio="xMidYMid meet">
<metadata>
Created by potrace 1.16, written by Peter Selinger 2001-2019
</metadata>
<g transform="translate(0.000000,520.000000) scale(0.100000,-0.100000)"
fill="#000000" stroke="none">
<path d="M2950 4894 c-14 -3 -54 -11 -90 -19 -36 -8 -96 -19 -135 -25 -104
-15 -199 -66 -271 -143 -97 -104 -128 -159 -179 -317 -26 -80 -60 -181 -76
-225 -16 -44 -36 -111 -44 -150 -8 -38 -39 -142 -70 -230 -91 -262 -152 -446
-170 -510 -31 -112 -183 -390 -351 -644 -65 -98 -127 -204 -149 -256 -20 -50
-75 -166 -120 -260 -76 -156 -125 -282 -170 -440 -9 -32 -30 -84 -45 -115 -30
-58 -56 -127 -126 -330 -33 -97 -43 -140 -44 -191 0 -64 2 -68 34 -97 58 -51
159 -54 431 -13 257 38 291 41 405 35 l115 -6 106 61 c103 59 159 107 159 137
0 8 -9 32 -20 54 -18 36 -25 40 -118 69 -54 17 -110 39 -123 49 -13 11 -39 27
-58 37 -19 9 -56 37 -82 62 -64 60 -70 97 -33 213 14 47 38 110 51 140 14 30
36 87 48 125 61 185 158 360 295 532 36 44 89 128 118 185 29 56 67 126 84
153 46 73 134 254 163 334 52 143 71 173 175 281 115 119 162 185 196 273 40
103 80 113 167 42 43 -35 60 -57 76 -100 40 -106 200 -282 547 -600 119 -110
142 -126 270 -192 139 -71 230 -103 297 -103 58 0 138 -21 158 -41 28 -28 23
-52 -20 -95 -33 -34 -39 -47 -45 -99 -10 -95 7 -241 33 -273 12 -15 40 -52 62
-82 51 -67 240 -254 291 -286 35 -22 80 -36 160 -49 21 -3 51 -17 68 -31 36
-31 40 -73 11 -156 -26 -75 -55 -276 -54 -378 l0 -84 39 -34 39 -34 84 6 c191
14 232 80 217 354 -6 121 -6 123 19 148 l25 25 37 -20 c23 -11 76 -63 130
-127 98 -116 262 -273 353 -341 30 -22 87 -75 127 -116 39 -42 89 -84 110 -95
117 -59 506 -106 683 -83 68 9 91 16 120 39 50 41 51 74 5 122 -30 31 -49 40
-113 54 -42 10 -120 33 -173 52 -66 25 -124 38 -190 44 -99 9 -148 23 -161 43
-4 7 -8 26 -8 44 0 51 44 54 142 11 40 -18 55 -20 99 -12 61 10 74 27 65 77
-10 53 -49 67 -187 67 -59 0 -120 -5 -134 -10 -18 -7 -33 -7 -48 1 -39 21
-119 103 -160 164 -22 33 -60 82 -85 110 -24 27 -58 70 -75 95 -17 25 -72 93
-121 151 -112 131 -162 191 -206 249 -18 25 -66 79 -105 120 -68 71 -135 172
-165 250 -8 19 -39 80 -70 135 -80 144 -100 195 -171 435 -30 102 -79 212 -98
225 -14 8 -191 230 -231 290 -51 76 -118 148 -206 223 -44 37 -139 126 -211
197 -307 304 -645 621 -733 686 -19 15 -73 46 -120 69 -47 23 -105 57 -130 74
-70 50 -81 53 -260 70 -19 2 -46 2 -60 0z"/>
</g>
</svg>
