<?xml version="1.0" standalone="no"?>
<!DOCTYPE svg PUBLIC "-//W3C//DTD SVG 20010904//EN"
 "http://www.w3.org/TR/2001/REC-SVG-20010904/DTD/svg10.dtd">
<svg version="1.0" xmlns="http://www.w3.org/2000/svg"
 width="924.000000pt" height="520.000000pt" viewBox="0 0 924.000000 520.000000"
 preserveAspectRatio="xMidYMid meet">
<metadata>
Created by potrace 1.16, written by Peter Selinger 2001-2019
</metadata>
<g transform="translate(0.000000,520.000000) scale(0.100000,-0.100000)"
fill="#000000" stroke="none">
<path d="M6327 3643 l-67 -36 -84 12 c-62 9 -99 10 -138 2 -102 -20 -197 -31
-266 -31 -54 0 -79 -5 -115 -24 -25 -14 -68 -32 -95 -40 -56 -16 -106 -40
-140 -67 -13 -10 -45 -25 -71 -34 -53 -17 -158 -70 -181 -90 -8 -7 -54 -31
-101 -53 -53 -24 -107 -59 -142 -91 -32 -28 -61 -51 -66 -51 -18 0 -74 -65
-92 -106 -10 -24 -28 -48 -41 -55 -38 -20 -91 -70 -125 -118 -18 -25 -51 -68
-73 -96 -22 -27 -73 -97 -114 -155 -102 -145 -196 -228 -334 -299 -26 -13 -81
-66 -149 -143 -59 -67 -125 -139 -145 -160 -21 -20 -38 -42 -38 -47 0 -6 -13
-25 -29 -43 -16 -18 -59 -78 -97 -133 -133 -196 -211 -280 -351 -377 -93 -64
-127 -97 -284 -273 -211 -238 -268 -313 -303 -400 -31 -79 -33 -142 -6 -195
35 -69 123 -95 203 -61 l47 20 0 109 c0 92 3 114 23 152 22 45 34 55 189 162
46 32 131 100 190 152 59 52 129 107 155 122 211 121 254 152 441 319 119 106
223 181 301 218 86 41 149 40 256 -1 99 -39 224 -69 318 -77 40 -4 96 -13 126
-21 29 -9 59 -13 66 -11 6 3 18 1 26 -3 11 -8 11 -16 0 -52 -7 -24 -16 -107
-21 -184 -4 -78 -10 -147 -14 -153 -4 -6 -13 -64 -21 -128 -8 -65 -24 -152
-35 -194 -25 -96 -18 -152 23 -183 25 -19 40 -21 135 -19 91 2 119 -2 184 -23
106 -35 136 -30 165 22 13 23 21 48 18 56 -3 8 -55 47 -116 87 -166 110 -175
138 -103 329 19 51 45 117 58 145 12 29 31 77 41 107 9 30 29 72 43 93 22 33
27 53 30 126 4 81 2 93 -27 158 -26 61 -31 83 -31 153 0 114 21 150 72 124 31
-16 83 -13 167 8 35 9 61 28 122 90 94 96 108 136 92 265 -6 45 -6 103 -2 138
14 98 31 424 26 507 l-4 77 -61 66 c-34 36 -62 72 -62 80 0 31 141 80 255 88
42 3 104 18 155 37 47 17 101 36 120 42 19 5 41 15 49 21 7 6 45 14 83 18 38
3 73 10 78 15 6 6 13 31 16 57 5 38 3 51 -11 67 -24 27 -39 25 -118 -17z"/>
</g>
</svg>
