<?xml version="1.0" standalone="no"?>
<!DOCTYPE svg PUBLIC "-//W3C//DTD SVG 20010904//EN"
 "http://www.w3.org/TR/2001/REC-SVG-20010904/DTD/svg10.dtd">
<svg version="1.0" xmlns="http://www.w3.org/2000/svg"
 width="924.000000pt" height="520.000000pt" viewBox="0 0 924.000000 520.000000"
 preserveAspectRatio="xMidYMid meet">
<metadata>
Created by potrace 1.16, written by Peter Selinger 2001-2019
</metadata>
<g transform="translate(0.000000,520.000000) scale(0.100000,-0.100000)"
fill="#000000" stroke="none">
<path d="M6617 4232 c-9 -10 -28 -44 -43 -77 -39 -84 -44 -193 -15 -296 23
-82 26 -167 11 -269 -17 -113 -29 -210 -45 -385 -22 -223 -59 -418 -94 -483
-19 -35 -57 -38 -115 -9 -66 34 -211 53 -318 43 -71 -7 -81 -11 -122 -47 -24
-21 -56 -60 -72 -87 -15 -26 -51 -75 -81 -109 -66 -76 -105 -158 -105 -221 -1
-30 11 -75 31 -124 17 -42 31 -91 31 -108 0 -26 10 -42 44 -74 83 -77 123
-106 147 -106 37 0 47 -12 45 -55 l-1 -40 55 -7 c30 -3 74 -9 98 -13 36 -7 46
-5 63 13 28 31 46 18 51 -37 3 -26 19 -77 36 -113 37 -76 39 -104 12 -190 -11
-34 -29 -121 -40 -193 -21 -142 -74 -304 -118 -365 -14 -19 -60 -71 -103 -115
-42 -44 -81 -90 -88 -102 -6 -12 -26 -26 -45 -33 -44 -14 -51 -34 -23 -61 19
-18 30 -20 75 -15 28 3 70 13 93 22 39 16 42 16 107 -10 37 -14 77 -26 88 -26
40 0 104 50 252 202 59 59 91 87 121 102 18 10 74 59 124 109 129 128 266 249
337 297 19 13 60 45 91 71 31 27 84 67 118 89 34 22 61 45 61 49 0 5 20 21 44
35 24 14 73 54 108 89 91 92 108 102 150 84 35 -15 94 -80 123 -137 9 -19 25
-44 35 -55 9 -11 25 -40 34 -65 10 -25 28 -58 40 -75 13 -16 32 -48 44 -70 11
-22 40 -66 64 -97 24 -31 68 -90 99 -130 30 -40 62 -89 69 -108 7 -19 31 -67
52 -106 21 -39 38 -77 38 -85 0 -8 14 -41 31 -74 50 -100 77 -212 85 -353 5
-95 11 -132 23 -146 69 -80 228 -31 261 81 12 39 10 50 -38 195 -28 84 -63
207 -77 273 -14 66 -39 160 -56 208 -16 49 -29 93 -29 99 0 14 -179 378 -196
398 -13 16 -83 255 -104 354 -7 33 -21 78 -31 100 -90 196 -275 434 -362 466
-18 6 -95 43 -172 81 -102 50 -151 69 -180 69 -40 0 -170 35 -236 64 -20 8
-86 27 -145 42 -207 50 -198 32 -185 355 6 140 9 463 8 719 -4 522 -6 542 -63
566 -45 19 -78 18 -97 -4z m-567 -2357 c0 -20 -38 -38 -66 -31 -32 8 -30 27 3
48 30 18 63 9 63 -17z m620 -405 c0 -43 -16 -73 -49 -91 -20 -11 -51 -31 -69
-44 -46 -33 -62 -24 -62 35 0 60 18 82 60 73 22 -4 37 1 60 20 27 24 60 27 60
7z"/>
</g>
</svg>
