<?xml version="1.0" standalone="no"?>
<!DOCTYPE svg PUBLIC "-//W3C//DTD SVG 20010904//EN"
 "http://www.w3.org/TR/2001/REC-SVG-20010904/DTD/svg10.dtd">
<svg version="1.0" xmlns="http://www.w3.org/2000/svg"
 width="924.000000pt" height="520.000000pt" viewBox="0 0 924.000000 520.000000"
 preserveAspectRatio="xMidYMid meet">
<metadata>
Created by potrace 1.16, written by Peter Selinger 2001-2019
</metadata>
<g transform="translate(0.000000,520.000000) scale(0.100000,-0.100000)"
fill="#000000" stroke="none">
<path d="M4845 4154 c-51 -19 -102 -68 -126 -121 -11 -23 -35 -120 -54 -215
-20 -95 -47 -211 -62 -258 -48 -158 -41 -406 16 -535 16 -37 25 -45 70 -60 29
-9 58 -27 66 -39 8 -12 19 -72 25 -141 6 -65 18 -131 26 -146 28 -56 19 -99
-46 -205 -75 -122 -120 -255 -120 -350 0 -35 12 -122 26 -192 24 -110 27 -152
28 -322 1 -187 0 -200 -31 -325 -50 -203 -54 -251 -42 -538 6 -164 6 -292 0
-354 -12 -125 -4 -180 29 -204 20 -14 53 -19 180 -23 85 -3 175 -8 200 -11 74
-10 119 5 143 47 l22 37 -22 44 c-19 38 -34 51 -125 102 -56 32 -111 65 -120
73 -26 22 -23 88 12 216 16 61 37 154 46 206 18 109 40 176 119 380 32 80 70
181 87 225 35 95 39 101 86 116 62 20 110 58 133 106 29 61 21 139 -26 243
-74 164 -79 209 -45 376 24 113 38 288 47 556 9 276 -11 362 -112 483 -93 113
-105 190 -38 264 36 39 73 167 73 251 0 98 -116 280 -200 314 -52 21 -208 21
-265 0z"/>
</g>
</svg>
