<?xml version="1.0" standalone="no"?>
<!DOCTYPE svg PUBLIC "-//W3C//DTD SVG 20010904//EN"
 "http://www.w3.org/TR/2001/REC-SVG-20010904/DTD/svg10.dtd">
<svg version="1.0" xmlns="http://www.w3.org/2000/svg"
 width="924.000000pt" height="520.000000pt" viewBox="0 0 924.000000 520.000000"
 preserveAspectRatio="xMidYMid meet">
<metadata>
Created by potrace 1.16, written by Peter Selinger 2001-2019
</metadata>
<g transform="translate(0.000000,520.000000) scale(0.100000,-0.100000)"
fill="#000000" stroke="none">
<path d="M4392 4953 c-18 -9 -42 -27 -52 -41 -35 -43 -62 -158 -68 -281 l-5
-114 64 -63 c116 -114 113 -109 119 -204 6 -101 42 -177 97 -210 25 -15 33
-26 33 -49 0 -35 -12 -40 -100 -48 -36 -3 -72 -11 -80 -18 -8 -6 -47 -30 -85
-53 -88 -52 -150 -114 -170 -172 -13 -37 -15 -78 -9 -265 7 -225 2 -283 -33
-393 -14 -45 -14 -63 -5 -115 16 -84 55 -156 112 -205 46 -39 52 -42 107 -40
86 2 99 -8 113 -92 20 -120 7 -156 -99 -275 -124 -138 -224 -302 -250 -409
-25 -101 -99 -203 -281 -386 -124 -124 -212 -186 -395 -281 -66 -34 -131 -72
-145 -86 -35 -34 -115 -91 -168 -119 -25 -13 -50 -31 -56 -39 -18 -25 -105
-81 -201 -130 -115 -59 -134 -78 -141 -140 -7 -65 19 -124 85 -189 46 -45 53
-48 85 -42 38 7 56 29 56 69 0 38 58 115 109 144 25 15 62 39 81 54 19 15 78
53 130 84 52 32 111 68 130 81 19 13 53 30 75 37 22 8 62 29 90 46 27 17 92
47 144 68 82 31 273 118 431 197 83 42 244 166 369 284 68 64 135 125 149 134
24 16 28 16 61 -1 21 -11 85 -23 156 -31 129 -13 165 -26 191 -65 15 -23 15
-30 0 -92 -29 -121 -76 -426 -76 -495 0 -36 -7 -102 -15 -145 -19 -101 -19
-130 3 -173 14 -29 24 -36 62 -42 29 -5 70 -3 118 7 61 13 85 13 133 4 33 -6
89 -9 126 -6 78 6 95 21 91 82 l-3 40 -78 27 c-82 27 -161 83 -184 129 -20 38
-15 112 13 228 28 114 97 308 135 381 19 35 24 61 24 115 0 109 -40 162 -206
270 -138 90 -228 151 -262 178 -36 28 -38 32 -32 71 4 22 18 79 32 126 48 160
53 184 59 264 4 45 15 106 25 136 29 83 24 126 -26 257 -31 81 -57 131 -86
166 -84 99 -92 140 -64 312 24 146 20 337 -10 454 -13 53 -29 140 -35 192 -16
150 -14 144 -131 383 -27 54 -29 67 -29 174 0 97 3 123 21 159 19 38 20 48 8
76 -18 47 -29 58 -77 78 -54 23 -136 24 -180 2z"/>
</g>
</svg>
