<?xml version="1.0" standalone="no"?>
<!DOCTYPE svg PUBLIC "-//W3C//DTD SVG 20010904//EN"
 "http://www.w3.org/TR/2001/REC-SVG-20010904/DTD/svg10.dtd">
<svg version="1.0" xmlns="http://www.w3.org/2000/svg"
 width="924.000000pt" height="520.000000pt" viewBox="0 0 924.000000 520.000000"
 preserveAspectRatio="xMidYMid meet">
<metadata>
Created by potrace 1.16, written by Peter Selinger 2001-2019
</metadata>
<g transform="translate(0.000000,520.000000) scale(0.100000,-0.100000)"
fill="#000000" stroke="none">
<path d="M6380 3666 c-14 -6 -41 -21 -60 -34 -41 -26 -61 -27 -157 -7 -51 11
-79 12 -97 5 -41 -15 -223 -40 -296 -40 -53 0 -77 -5 -116 -26 -27 -14 -80
-37 -118 -49 -37 -13 -85 -35 -105 -49 -20 -14 -61 -34 -91 -44 -67 -23 -156
-68 -165 -82 -4 -6 -54 -34 -111 -61 -57 -27 -118 -64 -136 -83 -18 -18 -47
-41 -65 -49 -39 -21 -90 -82 -98 -119 -5 -20 -22 -38 -59 -62 -29 -18 -62 -46
-75 -62 -50 -64 -160 -214 -215 -294 -97 -140 -162 -199 -342 -305 -34 -19
-84 -68 -145 -140 -52 -60 -114 -130 -139 -156 -25 -25 -54 -60 -65 -77 -108
-167 -259 -365 -326 -426 -33 -31 -90 -73 -127 -95 -73 -42 -106 -75 -319
-316 -165 -186 -199 -233 -249 -335 -47 -96 -54 -160 -25 -218 23 -45 55 -66
116 -76 42 -7 102 10 122 36 6 7 13 63 15 123 4 141 18 166 132 240 96 61 203
146 303 238 40 36 95 78 123 92 111 56 281 177 395 282 136 124 292 236 368
265 74 28 140 25 233 -12 100 -40 214 -67 336 -79 53 -5 106 -14 117 -20 11
-6 30 -11 43 -11 47 0 54 -14 35 -67 -12 -33 -17 -78 -17 -144 0 -53 -6 -132
-14 -175 -8 -44 -20 -120 -26 -171 -5 -50 -19 -121 -30 -157 -27 -85 -18 -149
23 -180 25 -18 43 -21 150 -22 97 -1 134 -6 181 -23 100 -36 139 -26 165 41
14 37 6 53 -37 79 -182 109 -217 145 -217 224 1 50 59 222 111 327 13 26 24
54 24 61 0 8 19 52 43 98 38 77 42 90 42 159 0 64 -5 85 -34 144 -27 55 -33
81 -34 135 -1 118 21 159 72 132 29 -16 86 -13 155 6 53 15 69 26 142 100 96
98 98 105 88 287 -4 83 -3 135 6 165 11 42 16 125 20 351 4 186 8 173 -65 247
-36 36 -65 72 -65 79 0 7 14 20 30 29 43 22 150 55 181 55 58 0 189 34 289 75
68 28 129 45 173 50 76 8 87 18 87 84 0 30 -6 44 -22 55 -26 18 -25 18 -58 2z"/>
</g>
</svg>
