<?xml version="1.0" standalone="no"?>
<!DOCTYPE svg PUBLIC "-//W3C//DTD SVG 20010904//EN"
 "http://www.w3.org/TR/2001/REC-SVG-20010904/DTD/svg10.dtd">
<svg version="1.0" xmlns="http://www.w3.org/2000/svg"
 width="924.000000pt" height="520.000000pt" viewBox="0 0 924.000000 520.000000"
 preserveAspectRatio="xMidYMid meet">
<metadata>
Created by potrace 1.16, written by Peter Selinger 2001-2019
</metadata>
<g transform="translate(0.000000,520.000000) scale(0.100000,-0.100000)"
fill="#000000" stroke="none">
<path d="M4845 4154 c-49 -18 -99 -65 -125 -119 -11 -22 -37 -128 -60 -236
-22 -108 -49 -223 -61 -255 -41 -116 -37 -317 8 -486 17 -64 31 -80 84 -97 62
-20 71 -38 82 -164 5 -61 16 -130 24 -152 31 -84 30 -89 -74 -275 -80 -141
-100 -292 -63 -450 51 -212 51 -471 1 -679 -49 -204 -53 -241 -42 -511 5 -135
7 -315 4 -400 -8 -213 -17 -203 193 -211 88 -4 173 -10 191 -14 18 -4 58 -4
88 0 54 6 57 8 77 50 l21 43 -24 43 c-20 35 -44 55 -132 109 -60 37 -113 73
-118 81 -16 25 -9 91 20 203 17 61 37 152 46 201 20 109 34 160 70 245 14 36
42 108 61 160 77 218 108 284 143 305 105 65 127 84 148 124 30 59 22 128 -34
266 -57 142 -63 201 -34 354 26 133 39 285 48 542 9 275 -13 379 -102 481 -70
80 -89 120 -88 185 0 46 5 58 36 92 38 42 39 44 62 144 23 105 20 148 -19 225
-48 96 -110 170 -159 193 -53 23 -211 25 -272 3z"/>
</g>
</svg>
