<?xml version="1.0" standalone="no"?>
<!DOCTYPE svg PUBLIC "-//W3C//DTD SVG 20010904//EN"
 "http://www.w3.org/TR/2001/REC-SVG-20010904/DTD/svg10.dtd">
<svg version="1.0" xmlns="http://www.w3.org/2000/svg"
 width="924.000000pt" height="520.000000pt" viewBox="0 0 924.000000 520.000000"
 preserveAspectRatio="xMidYMid meet">
<metadata>
Created by potrace 1.16, written by Peter Selinger 2001-2019
</metadata>
<g transform="translate(0.000000,520.000000) scale(0.100000,-0.100000)"
fill="#000000" stroke="none">
<path d="M4349 4943 c-20 -3 -37 -20 -65 -65 -46 -76 -51 -118 -30 -261 16
-109 41 -166 91 -207 37 -31 46 -70 55 -228 4 -87 13 -169 20 -183 20 -44 -17
-91 -110 -140 -103 -53 -163 -117 -186 -195 -15 -54 -16 -75 -4 -241 14 -193
11 -238 -22 -373 -27 -113 -22 -198 17 -264 15 -26 39 -55 52 -64 14 -9 40
-30 59 -46 27 -23 41 -27 65 -22 40 8 93 -15 115 -49 13 -19 18 -47 18 -94 0
-84 -23 -132 -108 -221 -56 -59 -105 -128 -193 -275 -16 -28 -35 -73 -42 -99
-15 -59 -37 -103 -90 -182 -61 -90 -221 -265 -278 -304 -28 -19 -80 -56 -116
-81 -36 -26 -118 -73 -183 -105 -66 -32 -157 -85 -202 -117 -46 -32 -98 -67
-115 -79 -18 -12 -43 -30 -57 -40 -100 -72 -177 -120 -251 -156 -108 -52 -139
-86 -139 -150 0 -62 54 -137 122 -169 56 -27 70 -23 92 25 20 43 100 117 182
167 33 20 86 53 119 75 121 79 407 227 545 282 41 16 108 47 149 69 41 22 100
49 132 59 61 21 159 75 206 113 15 13 63 47 105 76 43 29 126 98 184 154 58
56 120 109 137 118 29 16 34 15 72 -1 22 -10 90 -23 154 -30 120 -11 185 -35
196 -71 4 -10 2 -35 -4 -56 -26 -99 -81 -410 -91 -513 -5 -63 -17 -144 -26
-180 -19 -82 -12 -139 22 -171 24 -23 31 -24 147 -22 96 2 141 -2 210 -19 l88
-21 34 33 c19 19 35 44 35 56 0 24 -60 83 -112 110 -55 28 -129 87 -144 116
-20 39 -17 93 12 205 29 114 107 338 139 403 54 107 53 194 -1 265 -16 20 -69
64 -119 96 -49 32 -111 74 -136 93 -26 19 -66 44 -90 56 -76 38 -129 88 -129
120 0 53 31 189 55 245 27 60 50 237 50 385 -1 67 -5 86 -44 173 -24 54 -62
126 -84 160 -79 123 -89 187 -62 412 21 173 18 278 -11 460 -20 127 -34 181
-67 260 -22 55 -46 107 -52 115 -35 45 -61 261 -50 415 l7 91 -47 38 c-59 49
-129 64 -226 49z"/>
</g>
</svg>
