<?xml version="1.0" standalone="no"?>
<!DOCTYPE svg PUBLIC "-//W3C//DTD SVG 20010904//EN"
 "http://www.w3.org/TR/2001/REC-SVG-20010904/DTD/svg10.dtd">
<svg version="1.0" xmlns="http://www.w3.org/2000/svg"
 width="924.000000pt" height="520.000000pt" viewBox="0 0 924.000000 520.000000"
 preserveAspectRatio="xMidYMid meet">
<metadata>
Created by potrace 1.16, written by Peter Selinger 2001-2019
</metadata>
<g transform="translate(0.000000,520.000000) scale(0.100000,-0.100000)"
fill="#000000" stroke="none">
<path d="M3763 3985 c-17 -13 -17 -15 0 -62 32 -84 40 -118 33 -146 -10 -42
-38 -51 -120 -39 -39 6 -105 14 -147 17 l-75 6 -52 -41 c-57 -44 -95 -98 -125
-175 -18 -47 -19 -65 -11 -275 10 -259 8 -394 -7 -466 -8 -42 -7 -61 8 -105
16 -47 24 -57 66 -80 48 -26 178 -56 195 -45 5 3 23 -5 42 -17 63 -42 75 -47
109 -47 24 0 44 9 72 35 35 31 41 33 69 24 16 -6 38 -23 49 -37 22 -32 61
-135 61 -161 0 -25 -57 -148 -86 -187 -14 -17 -33 -58 -44 -91 -18 -52 -36
-75 -153 -194 -177 -181 -193 -202 -212 -285 -16 -70 -70 -181 -108 -222 -12
-13 -78 -67 -147 -119 -121 -91 -234 -205 -302 -303 -42 -60 -79 -106 -161
-201 -87 -101 -110 -152 -111 -249 -1 -99 21 -133 95 -149 61 -13 123 0 139
29 5 10 10 45 10 77 0 32 4 74 9 94 14 63 78 145 179 231 54 45 147 128 208
184 106 98 167 144 278 210 76 45 194 133 211 157 18 26 187 181 275 252 75
61 168 109 225 118 60 9 158 -15 270 -68 55 -25 165 -69 244 -96 80 -27 153
-57 163 -66 25 -22 23 -84 -4 -136 -30 -58 -95 -299 -118 -437 -11 -64 -28
-145 -40 -182 -28 -90 -20 -140 26 -169 28 -17 48 -20 126 -18 73 1 106 -3
152 -20 71 -25 180 -38 190 -22 4 6 9 32 13 59 5 44 3 51 -20 68 -40 29 -87
62 -139 95 -57 36 -83 91 -73 153 10 57 61 178 167 394 105 217 121 271 93
332 -25 55 -148 169 -271 251 -198 132 -225 148 -288 169 -75 25 -136 82 -136
128 0 15 -7 52 -16 82 -10 36 -19 123 -24 250 -7 174 -10 203 -34 270 -15 41
-35 109 -45 150 -30 119 -58 184 -109 252 -27 35 -67 88 -90 119 -31 41 -46
75 -60 135 -23 92 -73 208 -106 244 -13 14 -36 48 -50 75 -27 50 -82 127 -111
155 -9 8 -30 28 -47 45 -43 42 -111 67 -135 50z"/>
</g>
</svg>
