<?xml version="1.0" standalone="no"?>
<!DOCTYPE svg PUBLIC "-//W3C//DTD SVG 20010904//EN"
 "http://www.w3.org/TR/2001/REC-SVG-20010904/DTD/svg10.dtd">
<svg version="1.0" xmlns="http://www.w3.org/2000/svg"
 width="924.000000pt" height="520.000000pt" viewBox="0 0 924.000000 520.000000"
 preserveAspectRatio="xMidYMid meet">
<metadata>
Created by potrace 1.16, written by Peter Selinger 2001-2019
</metadata>
<g transform="translate(0.000000,520.000000) scale(0.100000,-0.100000)"
fill="#000000" stroke="none">
<path d="M2876 4608 c-9 -12 -16 -38 -16 -57 0 -38 38 -149 78 -230 32 -63 67
-84 184 -112 43 -10 97 -28 121 -40 37 -19 162 -107 205 -146 10 -8 36 -29 59
-46 113 -87 204 -171 201 -186 -7 -37 -86 -45 -200 -20 -92 21 -168 -40 -247
-198 -48 -97 -49 -111 -22 -303 29 -198 35 -323 20 -405 -7 -38 -13 -97 -13
-130 -2 -109 34 -134 223 -151 62 -6 79 -12 107 -36 45 -40 133 -51 167 -21
36 32 44 34 80 17 39 -19 87 -104 87 -154 0 -41 -41 -140 -78 -187 -16 -21
-35 -54 -43 -73 -18 -48 -74 -125 -134 -185 -58 -59 -171 -193 -196 -233 -10
-15 -25 -56 -34 -91 -19 -73 -62 -164 -99 -208 -14 -16 -77 -70 -141 -118
-119 -90 -259 -231 -318 -321 -18 -27 -52 -74 -76 -104 -23 -30 -59 -76 -78
-102 -19 -27 -39 -48 -44 -48 -14 0 -55 -90 -67 -145 -17 -80 -5 -138 34 -176
32 -31 39 -33 104 -33 99 -1 112 13 115 131 1 68 6 97 23 130 26 51 113 140
247 253 54 47 129 112 165 146 62 58 165 130 295 204 33 20 116 90 190 161
226 220 357 315 457 333 62 11 163 -13 291 -71 66 -29 174 -71 240 -93 66 -22
131 -47 144 -55 32 -21 31 -82 -2 -144 -30 -58 -99 -316 -115 -436 -7 -49 -23
-123 -36 -163 -54 -166 -27 -204 144 -202 84 2 105 -2 162 -25 36 -14 90 -29
120 -32 66 -6 80 5 87 71 5 41 3 45 -40 81 -25 21 -72 52 -104 69 -65 35 -103
88 -103 145 0 47 57 184 166 401 108 215 124 270 99 336 -37 97 -365 354 -550
431 -91 38 -145 86 -145 131 0 15 -9 68 -20 117 -14 68 -19 122 -17 220 2 128
1 132 -39 255 -23 69 -56 171 -73 226 -29 92 -40 112 -118 215 -78 102 -93
128 -141 254 -55 144 -107 240 -177 324 -126 153 -219 252 -267 282 -29 18
-78 58 -108 87 -30 30 -81 67 -113 83 -69 36 -192 113 -201 128 -4 5 -32 22
-64 36 -31 14 -66 34 -77 44 -11 11 -38 28 -61 39 -22 11 -75 50 -118 86 -42
36 -83 66 -91 66 -8 0 -21 -10 -29 -22z"/>
</g>
</svg>
