<?xml version="1.0" standalone="no"?>
<!DOCTYPE svg PUBLIC "-//W3C//DTD SVG 20010904//EN"
 "http://www.w3.org/TR/2001/REC-SVG-20010904/DTD/svg10.dtd">
<svg version="1.0" xmlns="http://www.w3.org/2000/svg"
 width="924.000000pt" height="520.000000pt" viewBox="0 0 924.000000 520.000000"
 preserveAspectRatio="xMidYMid meet">
<metadata>
Created by potrace 1.16, written by Peter Selinger 2001-2019
</metadata>
<g transform="translate(0.000000,520.000000) scale(0.100000,-0.100000)"
fill="#000000" stroke="none">
<path d="M3125 2451 c-38 -11 -92 -29 -118 -40 -26 -11 -78 -26 -115 -32 -37
-7 -92 -25 -122 -41 -75 -39 -201 -156 -245 -228 -49 -81 -86 -226 -87 -350
-2 -113 21 -183 96 -295 73 -109 65 -139 -64 -225 -57 -39 -80 -78 -80 -138 0
-51 14 -62 135 -102 94 -31 111 -33 305 -41 272 -11 416 -24 466 -42 22 -8 67
-20 100 -27 32 -6 88 -23 124 -37 164 -64 752 -73 869 -14 56 29 114 91 162
172 51 88 119 162 208 228 105 77 125 85 216 85 142 -1 260 -43 389 -138 99
-74 129 -86 316 -131 85 -20 211 -53 280 -73 215 -61 224 -62 583 -72 186 -5
342 -12 348 -15 5 -4 171 -11 367 -17 196 -5 395 -12 442 -15 60 -3 105 0 155
12 73 18 95 29 95 50 0 38 -150 175 -220 201 -36 14 -88 18 -255 20 -279 4
-325 9 -394 43 -31 16 -141 56 -245 90 -145 47 -199 69 -230 95 -57 46 -92 62
-153 71 -81 11 -139 53 -169 123 -52 121 -78 162 -131 202 -70 52 -71 53 -198
93 -115 37 -235 57 -342 57 -83 0 -122 17 -200 90 -112 106 -150 125 -328 169
-88 22 -198 48 -245 57 -47 8 -135 31 -196 49 -61 19 -159 41 -219 50 -59 9
-167 29 -239 45 -288 64 -440 81 -751 86 -213 4 -248 2 -310 -15z"/>
</g>
</svg>
