<?xml version="1.0" standalone="no"?>
<!DOCTYPE svg PUBLIC "-//W3C//DTD SVG 20010904//EN"
 "http://www.w3.org/TR/2001/REC-SVG-20010904/DTD/svg10.dtd">
<svg version="1.0" xmlns="http://www.w3.org/2000/svg"
 width="924.000000pt" height="520.000000pt" viewBox="0 0 924.000000 520.000000"
 preserveAspectRatio="xMidYMid meet">
<metadata>
Created by potrace 1.16, written by Peter Selinger 2001-2019
</metadata>
<g transform="translate(0.000000,520.000000) scale(0.100000,-0.100000)"
fill="#000000" stroke="none">
<path d="M4450 4961 c-38 -16 -51 -29 -85 -87 -44 -76 -43 -71 -30 -271 l7
-103 64 -65 c72 -74 69 -62 84 -292 12 -180 9 -194 -45 -214 -66 -24 -83 -37
-161 -114 -116 -116 -117 -122 -82 -521 10 -112 9 -143 -5 -221 -22 -117 -21
-141 4 -207 32 -86 112 -144 174 -127 45 12 59 -1 75 -70 16 -64 8 -195 -14
-237 -9 -17 -40 -57 -69 -89 -110 -119 -214 -268 -237 -340 -55 -167 -144
-299 -310 -462 -64 -63 -190 -160 -240 -186 -19 -10 -49 -28 -66 -41 -16 -13
-51 -33 -76 -44 -74 -32 -177 -98 -254 -160 -39 -32 -82 -63 -95 -70 -13 -7
-37 -25 -54 -39 -42 -39 -125 -96 -177 -122 -49 -25 -107 -65 -125 -88 -8 -9
-13 -43 -13 -81 0 -56 4 -73 25 -101 14 -19 33 -51 43 -71 10 -20 41 -57 69
-83 48 -42 54 -45 85 -37 l33 9 -4 82 c-3 80 -2 84 30 129 46 65 122 137 213
202 91 65 385 219 497 260 43 16 144 61 225 100 80 38 149 70 154 70 4 0 68
42 141 93 129 89 183 133 314 260 82 80 106 92 145 72 16 -9 76 -22 133 -30
161 -23 208 -35 235 -62 26 -27 26 -26 -6 -143 -30 -110 -70 -342 -76 -440 -2
-47 -12 -124 -22 -173 -14 -72 -15 -94 -5 -127 15 -50 41 -64 113 -61 113 6
204 5 300 -4 114 -9 123 -5 133 61 8 58 -1 68 -76 84 -73 16 -142 59 -176 112
-35 52 -33 122 6 253 35 120 104 301 139 368 18 35 26 70 30 122 4 69 3 75
-26 116 -42 59 -165 151 -352 263 -42 25 -88 58 -104 75 -35 37 -34 53 23 246
52 173 82 316 88 417 4 62 1 87 -17 135 -12 32 -27 67 -34 78 -7 11 -19 37
-26 59 -7 21 -27 55 -45 75 -43 47 -74 111 -81 163 -3 24 -1 93 5 153 32 327
33 374 12 506 -12 68 -21 151 -21 183 0 33 -7 85 -14 115 -8 31 -22 100 -30
154 -15 95 -25 124 -67 197 -20 35 -21 85 -3 215 4 28 -1 54 -15 87 -20 43
-26 48 -74 62 -88 25 -137 27 -187 7z"/>
</g>
</svg>
