<?xml version="1.0" standalone="no"?>
<!DOCTYPE svg PUBLIC "-//W3C//DTD SVG 20010904//EN"
 "http://www.w3.org/TR/2001/REC-SVG-20010904/DTD/svg10.dtd">
<svg version="1.0" xmlns="http://www.w3.org/2000/svg"
 width="924.000000pt" height="520.000000pt" viewBox="0 0 924.000000 520.000000"
 preserveAspectRatio="xMidYMid meet">
<metadata>
Created by potrace 1.16, written by Peter Selinger 2001-2019
</metadata>
<g transform="translate(0.000000,520.000000) scale(0.100000,-0.100000)"
fill="#000000" stroke="none">
<path d="M3970 3969 c-79 -24 -108 -79 -186 -356 -59 -211 -119 -350 -177
-412 -47 -50 -204 -150 -262 -166 -27 -7 -99 -21 -160 -30 -245 -38 -295 -54
-295 -100 0 -39 39 -74 100 -90 163 -43 379 -39 525 10 50 17 111 29 165 32
127 8 133 2 199 -227 43 -148 56 -240 41 -299 -18 -73 -157 -321 -255 -456
-24 -33 -54 -78 -66 -100 -28 -51 -125 -213 -174 -290 -66 -104 -126 -174
-199 -232 -124 -99 -169 -145 -261 -270 -136 -184 -148 -202 -176 -254 -15
-26 -38 -62 -52 -79 -57 -67 -88 -182 -73 -263 9 -46 56 -76 130 -84 45 -5 59
-2 85 16 30 22 31 24 31 107 0 74 4 92 29 142 29 57 46 75 241 257 58 54 128
121 155 149 28 28 95 85 150 125 135 101 215 169 282 241 62 68 238 216 323
273 30 20 83 46 118 58 62 21 66 21 134 4 38 -9 109 -33 156 -52 117 -48 263
-100 342 -123 68 -20 110 -54 110 -91 0 -11 -15 -73 -34 -138 -19 -65 -44
-181 -56 -257 -11 -77 -32 -183 -46 -236 -29 -117 -31 -188 -6 -211 39 -35 90
-48 165 -41 53 5 86 2 126 -10 30 -9 88 -19 130 -22 92 -8 104 1 99 73 -3 47
-4 49 -59 78 -100 54 -148 95 -174 150 -19 38 -24 59 -19 85 4 19 52 143 106
275 152 365 154 373 123 439 -23 49 -127 143 -260 237 -162 115 -217 149 -267
164 -110 33 -124 43 -151 103 -39 90 -48 174 -46 427 1 147 -4 280 -13 370
-14 125 -19 148 -51 210 -19 39 -52 86 -72 105 -49 46 -91 108 -99 145 -5 23
2 47 29 102 46 93 47 162 6 284 -50 149 -74 185 -146 215 -48 20 -215 28 -265
13z"/>
</g>
</svg>
