<?xml version="1.0" standalone="no"?>
<!DOCTYPE svg PUBLIC "-//W3C//DTD SVG 20010904//EN"
 "http://www.w3.org/TR/2001/REC-SVG-20010904/DTD/svg10.dtd">
<svg version="1.0" xmlns="http://www.w3.org/2000/svg"
 width="924.000000pt" height="520.000000pt" viewBox="0 0 924.000000 520.000000"
 preserveAspectRatio="xMidYMid meet">
<metadata>
Created by potrace 1.16, written by Peter Selinger 2001-2019
</metadata>
<g transform="translate(0.000000,520.000000) scale(0.100000,-0.100000)"
fill="#000000" stroke="none">
<path d="M4375 4954 c-11 -3 -29 -7 -40 -9 -30 -6 -85 -91 -97 -149 -8 -39 -7
-76 6 -160 17 -114 37 -162 97 -231 40 -45 49 -81 49 -198 0 -54 7 -131 15
-172 21 -102 11 -122 -93 -174 -91 -47 -162 -116 -187 -184 -16 -42 -17 -64
-9 -190 14 -230 11 -363 -12 -427 -13 -38 -19 -82 -19 -140 0 -80 2 -89 33
-137 18 -28 45 -59 60 -68 15 -10 39 -29 54 -43 22 -20 33 -23 61 -18 40 7
112 -17 121 -40 3 -8 8 -43 12 -79 10 -92 -11 -141 -101 -235 -104 -110 -210
-280 -250 -405 -14 -41 -44 -103 -67 -137 -69 -102 -235 -285 -300 -331 -33
-23 -88 -61 -122 -85 -33 -24 -113 -68 -176 -98 -63 -30 -126 -65 -140 -78
-14 -12 -43 -33 -65 -46 -22 -13 -58 -37 -80 -52 -22 -16 -56 -40 -75 -53 -19
-13 -68 -47 -108 -75 -40 -27 -111 -69 -157 -91 -106 -51 -135 -83 -135 -146
0 -38 7 -55 41 -100 41 -55 70 -73 117 -73 21 0 41 16 86 66 33 37 85 82 115
102 31 19 94 60 141 90 169 111 390 226 585 304 55 22 124 53 153 70 28 16 73
37 100 47 26 9 67 27 92 40 86 45 309 213 410 309 56 53 116 104 133 113 30
16 34 16 67 -1 21 -10 84 -22 155 -29 122 -13 156 -24 188 -58 17 -19 15 -29
-27 -249 -24 -126 -48 -281 -54 -344 -6 -63 -18 -142 -27 -174 -18 -70 -12
-137 16 -162 28 -25 104 -34 180 -21 57 9 76 8 152 -11 47 -12 95 -22 105 -22
22 0 82 59 82 81 0 22 -67 82 -126 114 -71 37 -133 103 -144 151 -8 32 -3 62
27 168 41 150 110 342 150 418 23 44 27 65 27 124 -1 68 -3 74 -39 117 -21 26
-68 66 -104 90 -36 24 -92 61 -124 83 -32 21 -84 55 -116 74 -31 19 -75 50
-97 67 l-39 33 17 100 c10 54 29 127 43 162 18 45 28 95 36 183 5 66 14 136
20 156 6 25 6 54 -2 89 -15 71 -82 221 -135 300 -73 111 -79 144 -64 333 25
303 24 367 -5 537 -18 105 -36 176 -56 221 -16 36 -29 69 -29 73 0 4 -16 42
-36 83 -35 71 -37 84 -42 195 -3 71 0 155 8 208 l13 89 -32 40 c-26 32 -41 42
-84 51 -68 14 -127 20 -152 14z"/>
</g>
</svg>
