<?xml version="1.0" standalone="no"?>
<!DOCTYPE svg PUBLIC "-//W3C//DTD SVG 20010904//EN"
 "http://www.w3.org/TR/2001/REC-SVG-20010904/DTD/svg10.dtd">
<svg version="1.0" xmlns="http://www.w3.org/2000/svg"
 width="924.000000pt" height="520.000000pt" viewBox="0 0 924.000000 520.000000"
 preserveAspectRatio="xMidYMid meet">
<metadata>
Created by potrace 1.16, written by Peter Selinger 2001-2019
</metadata>
<g transform="translate(0.000000,520.000000) scale(0.100000,-0.100000)"
fill="#000000" stroke="none">
<path d="M3975 3965 c-53 -21 -89 -57 -115 -117 -27 -63 -83 -247 -109 -358
-22 -95 -95 -245 -145 -298 -17 -18 -76 -59 -132 -92 -105 -63 -143 -75 -319
-100 -111 -16 -205 -38 -221 -51 -23 -19 -16 -53 19 -87 51 -49 105 -64 260
-69 147 -6 222 3 317 39 34 12 90 22 147 26 91 5 92 5 122 -25 16 -16 34 -50
41 -74 6 -24 24 -89 40 -144 63 -218 63 -266 -2 -384 -22 -42 -51 -97 -64
-122 -24 -49 -85 -145 -153 -239 -22 -30 -55 -82 -73 -115 -196 -345 -263
-434 -401 -538 -121 -92 -274 -280 -395 -485 -18 -32 -42 -66 -52 -77 -10 -11
-32 -46 -49 -78 -25 -47 -31 -69 -31 -122 0 -35 4 -75 9 -88 15 -38 65 -68
124 -74 47 -5 56 -2 85 22 31 26 32 28 32 112 0 133 21 164 251 379 104 97
189 180 189 183 0 4 50 45 112 92 157 119 248 196 303 257 79 88 297 263 381
305 104 53 179 45 390 -39 143 -57 245 -92 314 -109 62 -15 100 -51 100 -93 0
-15 -16 -79 -35 -142 -19 -63 -44 -177 -56 -255 -11 -77 -32 -181 -45 -230
-29 -110 -31 -185 -6 -208 36 -33 84 -45 157 -40 47 3 89 0 130 -11 33 -9 94
-19 135 -23 91 -7 103 2 98 74 -3 47 -4 49 -59 78 -101 55 -148 95 -174 151
-18 39 -23 61 -18 86 6 33 151 400 200 507 14 31 29 83 34 116 7 54 5 64 -17
102 -35 60 -159 164 -359 300 -71 48 -126 76 -190 98 -83 28 -92 33 -112 70
-41 76 -53 174 -53 437 0 134 -5 295 -11 358 -9 103 -14 124 -52 204 -23 49
-64 117 -91 150 -87 110 -92 137 -43 251 33 75 35 148 6 241 -28 92 -71 185
-95 206 -53 46 -243 72 -319 43z"/>
</g>
</svg>
